<?xml version="1.0" encoding="utf-8"?>
<!-- Generator: Adobe Illustrator 22.1.0, SVG Export Plug-In . SVG Version: 6.00 Build 0)  -->
<svg version="1.1" id="圖層_1" xmlns="http://www.w3.org/2000/svg" xmlns:xlink="http://www.w3.org/1999/xlink" x="0px" y="0px"
	 viewBox="0 0 1024 1024" style="enable-background:new 0 0 1024 1024;" xml:space="preserve">
<style type="text/css">
	.st0{fill:#82BE0F;}
	.st1{stroke:#000000;stroke-width:10;stroke-miterlimit:10;}
</style>
<rect class="st0" width="1024" height="1024"/>
<g>
	<path class="st1" d="M331.4,277.465c0-42.964-34.953-77.917-77.917-77.917s-77.917,34.953-77.917,77.916l0,0v364.339
		c7.047-1.466,14.341-2.25,21.817-2.25c3.156,0,6.263,0.205,9.35,0.474V342.973l201.304,239.904
		c0.393-13.145,3.245-26.158,8.51-38.345L257.73,355.261C298.726,353.048,331.4,319.003,331.4,277.465z M253.483,230.714
		c25.779,0,46.75,20.971,46.75,46.75s-20.971,46.75-46.75,46.75s-46.75-20.971-46.75-46.75S227.704,230.714,253.483,230.714z"/>
	<path class="st1" d="M826.617,668.619c-17.527,0-33.718,5.821-46.75,15.626V437.42L748.7,474.563v271.968c0,0.002,0,0.003,0,0.005
		c0,42.964,34.953,77.917,77.917,77.917s77.917-34.953,77.917-77.917C904.533,703.572,869.58,668.619,826.617,668.619z
		 M826.617,793.285c-25.779,0-46.75-20.97-46.75-46.75l0,0v-0.005c0.003-25.777,20.972-46.745,46.75-46.745
		c25.779,0,46.75,20.971,46.75,46.75S852.396,793.285,826.617,793.285z"/>
	<path class="st1" d="M571.613,535.844c-0.951-1.133-1.987-2.15-2.988-3.215l140.625-167.59
		c-8.572-6.014-16.203-13.248-22.683-21.454l-143.502,171.02c-19.645-8.537-42.248-8.759-62.201-0.094l-143.419-170.92
		c-6.478,8.208-14.108,15.443-22.679,21.459l140.506,167.448c-9.624,10.192-15.983,22.487-19.047,35.485
		c-5.035,21.36-1.06,44.547,12.503,63.388c1.128,1.567,2.249,3.138,3.51,4.641c1.261,1.503,2.614,2.88,3.962,4.264
		c13.109,13.455,30.1,21.255,47.732,23.073c2.967,0.306,5.944,0.48,8.929,0.447c17.39-0.194,34.818-6.155,49.148-18.18
		c2.335-1.959,4.487-4.053,6.532-6.216c2.02-2.136,3.873-4.375,5.609-6.684c14.013-18.639,18.717-42.434,13.536-64.618
		C584.997,556.584,579.719,545.504,571.613,535.844z M555.33,603.257c-1.399,3.519-3.277,6.868-5.543,10.008l-4.64,5.53
		c-1.007,1.017-2.053,2.008-3.171,2.946c-2.374,1.992-4.896,3.692-7.514,5.133c-14.091,7.761-31.113,7.576-44.946,0.034
		c-3.537-1.929-6.875-4.313-9.888-7.199c-1.223-1.171-2.403-2.405-3.515-3.731s-2.123-2.702-3.064-4.11
		c-1.811-2.709-3.292-5.558-4.471-8.494c-6.235-15.525-3.719-33.52,6.937-46.751c1.875-2.328,3.986-4.516,6.36-6.508
		c6.125-5.139,13.193-8.428,20.522-9.942c6.339-1.309,12.864-1.252,19.157,0.067c9.894,2.074,19.196,7.31,26.184,15.637
		c0.235,0.28,0.427,0.581,0.654,0.865C559.222,570.271,561.351,588.102,555.33,603.257z"/>
	<path class="st1" d="M817.267,640.003c3.087-0.269,6.194-0.474,9.35-0.474c7.476,0,14.77,0.784,21.817,2.25V277.44l0,0
		c0-42.964-34.953-77.917-77.917-77.917S692.6,234.476,692.6,277.44c0,41.548,32.688,75.599,73.697,77.799L607.234,544.802
		c5.348,12.234,8.177,25.213,8.601,38.237l201.432-240.058V640.003z M723.767,277.44c0-25.779,20.971-46.75,46.75-46.75
		s46.75,20.971,46.75,46.75s-20.971,46.75-46.75,46.75S723.767,303.22,723.767,277.44z"/>
	<path class="st1" d="M244.134,684.269c-13.032-9.805-29.223-15.626-46.75-15.626c-42.964,0-77.917,34.953-77.917,77.917
		s34.953,77.917,77.917,77.917c40.864,0,74.456-31.626,77.645-71.683h0.272V474.636l-31.167-37.143V684.269z M197.383,793.31
		c-25.779,0-46.75-20.971-46.75-46.75s20.971-46.75,46.75-46.75s46.75,20.971,46.75,46.75S223.163,793.31,197.383,793.31z"/>
</g>
<g>
	<path class="st0" d="M1024,1024H0V0h1024V1024z M30.118,993.882h963.765V30.118H30.118V993.882z"/>
</g>
</svg>
