<?xml version="1.0" encoding="utf-8"?>
<!-- Generator: Adobe Illustrator 15.1.0, SVG Export Plug-In . SVG Version: 6.00 Build 0)  -->
<!DOCTYPE svg PUBLIC "-//W3C//DTD SVG 1.1//EN" "http://www.w3.org/Graphics/SVG/1.1/DTD/svg11.dtd">
<svg version="1.1" id="圖層_1" xmlns="http://www.w3.org/2000/svg" xmlns:xlink="http://www.w3.org/1999/xlink" x="0px" y="0px"
	 width="23px" height="23px" viewBox="0 0 23 23" enable-background="new 0 0 23 23" xml:space="preserve">
<polygon fill="#82BE0F" points="14.07,8.5 11.071,6.398 14.07,4.297 "/>
<path fill="none" stroke="#82BE0F" stroke-miterlimit="10" d="M14.217,16.703c0.715-0.264,2.299-0.633,3.23-2.496
	c1.295-2.588,0.523-5.717-1.998-7.135c-1.172-0.659-2.49-0.819-3.708-0.548"/>
<polygon fill="#82BE0F" points="8.929,14.502 11.929,16.602 8.929,18.703 "/>
<path fill="none" stroke="#82BE0F" stroke-miterlimit="10" d="M8.783,6.297C8.068,6.562,6.484,6.93,5.553,8.794
	c-1.295,2.588-0.524,5.716,1.998,7.134c1.172,0.66,2.49,0.82,3.707,0.549"/>
<polygon fill="#82BE0F" points="14.07,8.5 11.071,6.398 14.07,4.297 "/>
<path fill="none" stroke="#82BE0F" stroke-miterlimit="10" d="M14.217,16.703c0.715-0.264,2.299-0.633,3.23-2.496
	c1.295-2.588,0.523-5.717-1.998-7.135c-1.172-0.659-2.49-0.819-3.708-0.548"/>
<polygon fill="#82BE0F" points="8.929,14.502 11.929,16.602 8.929,18.703 "/>
<path fill="none" stroke="#82BE0F" stroke-miterlimit="10" d="M8.783,6.297C8.068,6.562,6.484,6.93,5.553,8.794
	c-1.295,2.588-0.524,5.716,1.998,7.134c1.172,0.66,2.49,0.82,3.707,0.549"/>
</svg>
