<!-- Generated by IcoMoon.io -->
<svg version="1.1" xmlns="http://www.w3.org/2000/svg" width="20" height="20" viewBox="0 0 20 20">
<title>refresh</title>
<path fill="#e5e5e5" d="M10 3v2c-0.003 0-0.006 0-0.009 0-2.761 0-5 2.239-5 5 0 1.383 0.561 2.635 1.469 3.54l0 0-1.41 1.41c-1.267-1.267-2.051-3.017-2.051-4.95 0-3.866 3.134-7 7-7 0 0 0 0 0.001 0h-0zM14.95 5.050c1.267 1.267 2.051 3.017 2.051 4.95 0 3.866-3.134 7-7 7-0 0-0 0-0.001 0h0v-2c0.003 0 0.006 0 0.009 0 2.761 0 5-2.239 5-5 0-1.383-0.561-2.635-1.469-3.54l-0-0 1.41-1.41zM10 20l-4-4 4-4v8zM10 8v-8l4 4-4 4z"></path>
</svg>
